<?xml version="1.0" encoding="utf-8"?>
<!-- Generator: Adobe Illustrator 19.0.0, SVG Export Plug-In . SVG Version: 6.00 Build 0)  -->
<svg version="1.1" id="Слой_1" xmlns="http://www.w3.org/2000/svg" xmlns:xlink="http://www.w3.org/1999/xlink" x="0px" y="0px"
	 width="150px" height="150px" viewBox="0 0 150 150" style="enable-background:new 0 0 150 150;" xml:space="preserve">
<style type="text/css">
	.st0{fill-rule:evenodd;clip-rule:evenodd;}
	.st1{fill-rule:evenodd;clip-rule:evenodd;fill:#FFFFFF;}
	.st2{fill-rule:evenodd;clip-rule:evenodd;fill:#287C3C;}
	.st3{fill-rule:evenodd;clip-rule:evenodd;fill:#F21F1D;}
</style>
<g id="XMLID_1_">
	<g id="XMLID_3_">
		<path id="XMLID_66_" class="st0" d="M135.317,76.16c7.596,0.55,9.683-4.906,9.683-4.906s-8.916-2.086-7.129-2.76
			c5.382-2.017,6.927-8.807,6.927-8.807s-9.276,0.892-7.597,0c6.455-3.429,5.983-10.559,5.983-10.559s-7.823,2.364-6.657,1.146
			c4.571-4.777,2.994-10.325,2.994-10.325s-5.511,2.893-4.942,1.715c3.026-6.254-0.202-11.7-0.202-11.7s-4.783,4.151-4.521,2.731
			c1.816-9.917-2.943-12.111-2.943-12.111s-2.639,4.285-2.824,3.228c-1.412-7.968-4.942-9.078-4.942-9.078s-1.569,3.286-1.715,2.723
			c-1.82-7.048-6.859-8.17-6.859-8.17s-0.561,4.204-1.009,3.429c-4.91-8.436-11.7-7.666-11.7-7.666l9.078,28.646
			c0,0,0.485,0.487,1.257,1.328c2.496,2.966,9.217,11.414,10.004,17.24c0.986,7.294-2.814,12.566-4.698,13.851
			c-0.271,0.185-0.61,0.343-0.745,0.234c-0.344-0.276-0.493-1.484-0.159-2.321c0.092-0.255,2.24-6.291,1.962-10.181
			c-0.245-3.421-2.306-6.555-2.94-7.445c0.11-1.775,0.156-3.307,0.174-4.297c0.009-0.479-0.198-0.928-0.568-1.23
			c-0.381-0.311-0.877-0.427-1.362-0.319c-3.122,0.694-6.379,3.441-7.384,4.344c-0.918-0.114-2.943-0.033-4.819,2.314
			c-1.52,1.9-2.618,3.612-3.137,4.464c-0.388,0.638-0.458,1.424-0.187,2.102c0.257,0.644,0.777,1.569,1.793,2.319
			c1.011,0.747,1.459,1.486,1.608,1.777c-0.006,0.525,0.237,1.021,0.672,1.34c0.513,0.377,1.183,0.426,1.747,0.127
			c1.533-0.813,2.236-0.88,2.47-0.867l0.161,0.007c0.86,0.038,1.584,0.07,2.237-0.078c-0.72,1.632-1.883,3.887-3.532,5.957
			c-3.209,4.027-4.827,8.327-4.681,12.434c0.113,3.155,1.034,5.193,1.429,5.93l-12.338,28.313c-0.898-0.749-2.496-1.726-4.003-1.726
			c-2.491,0-5.094,3.609-5.094,4.908v0.885c0,0.446,0.636,0.752,1.082,0.752h13.678c0.351,0,0.661-0.199,0.768-0.533
			c0.034-0.105,3.423-10.551,8.073-15.201c4.581-4.581,7.606-5.426,7.639-5.435c0.023-0.006,0.125-0.032,0.278-0.088
			c0.982,1.442,2.317,2.848,3.8,4.16c-2.013-0.236-4.505-0.289-5.899,0.579c-0.593,0.37-0.981,0.896-1.124,1.522
			c-0.783,3.444,0.681,5.58,3.473,8.107c1.409,1.274,2.264,2.185,2.756,2.759l-1.128,0.469c-1.522-0.075-3.059-0.361-3.332-0.611
			c-1.675-2.233-3.442-1.682-4.347-1.154c-1.543,0.9-2.417,1.235-3.225,1.235c-1.323,0-3.392,1.024-3.495,2.569
			c-0.104,1.554,0.646,3.513,4.81,4.015c1.342,0.162,4.821,0.216,8.853,0.216c7.724,0,17.473-0.197,18.09-0.21
			c0.041-0.001,0.083-0.005,0.124-0.012c1.883-0.332,5.611-2.067,6.239-6.256c0.19-1.265-0.973-4.692-2.769-9.775
			c-0.358-1.012-0.704-1.993-1.004-2.872c-0.848-3.16-1.202-5.35,0.295-4.318c5.612,3.869,12.608,1.21,12.608,1.21
			s-13.826-11.81-10.224-10.857c8.673,2.296,12.039-1.682,12.039-1.682S132.287,75.94,135.317,76.16z M134.462,64.867
			c-2.255,0.706-6.56,1.824-11.922,2.094c-2.054,0.101,6.1,2.631,9.982,3.901c0.452,0.149,0.323,0.819-0.149,0.787
			c-2.84-0.19-9.021-1.001-11.652-1.864c-3.115-1.025,6.512,5.729,11.127,8.904c0.387,0.262,0.089,0.863-0.355,0.714
			c-3.675-1.243-10.119-3.595-12.786-5.652c-2.796-2.159,4.813,7.516,8.787,12.483c0.299,0.375-0.123,0.744-0.569,0.569
			c-4.118-1.621-7.626-7.325-9.901-9.017c-1.49-1.109,7.815,16.035,12.407,24.399c0.066,0.187,0.132,0.375,0.199,0.565
			c1.13,3.2,2.839,8.036,2.695,8.997c-0.581,3.871-4.348,4.787-4.869,4.895c-1.397,0.028-22.952,0.45-26.648,0.004
			c-3.519-0.425-3.428-1.791-3.394-2.306c0.026-0.394,1.102-1.062,1.885-1.062c1.286,0,2.498-0.557,4.038-1.455
			c0.709-0.415,1.361-0.446,2.243,0.729c0.302,0.403,0.921,0.678,1.645,0.868l-2.797,0.918c-0.377,0.124-0.608,0.475-0.545,0.866
			c0.063,0.392,0.4,0.652,0.797,0.652h21.624c0.446,0,0.807-0.554,0.807-1s-0.361-1-0.807-1h-16.578l2.753-0.683
			c0.295-0.097,0.492-0.238,0.541-0.524c0.168-0.098,0.297-0.195,0.36-0.382c0.074-0.221,0.049-0.436-0.07-0.638
			c-0.075-0.128-0.817-1.309-3.651-3.874c-2.842-2.571-3.539-4.095-2.982-6.545c0.029-0.129,0.103-0.318,0.403-0.506
			c1.387-0.865,5.315-0.395,7.581,0.12c2.356,1.781,4.767,3.28,6.512,4.292c1.451,0.842,2.4,1.327,2.44,1.347
			c0.117,0.06,0.242,0.088,0.365,0.088c0.294,0,0.577-0.161,0.72-0.441c0.202-0.397,0.044-0.883-0.353-1.085
			c-0.009-0.005-0.953-0.486-2.362-1.304c-1.737-1.007-4.154-2.507-6.482-4.277c-0.015-0.012-0.03-0.023-0.046-0.034
			c-2.212-1.685-4.329-3.613-5.709-5.594c0.81-0.611,1.646-1.589,1.915-3.129c0.342-1.951-0.407-3.008-1.009-3.858
			c-0.34-0.48-0.609-0.86-0.665-1.35c-0.184-1.59-0.072-2.403-0.072-2.407c0.068-0.44-0.234-0.852-0.675-0.92
			c-0.437-0.067-0.853,0.234-0.92,0.675c-0.015,0.1-0.145,1.033,0.063,2.838c0.104,0.9,0.554,1.536,0.951,2.097
			c0.537,0.759,0.962,1.359,0.736,2.647c-0.225,1.288-1.045,2.009-1.693,2.388c-0.411,0.24-0.74,0.334-0.739,0.334c0,0,0,0,0,0
			c-0.139,0.035-3.432,0.702-8.372,5.642c-4.337,4.336-7.494,13.082-8.282,15.082H78.807v0.378c0-0.68,1.852-3.31,3.287-3.31
			c1.359,0,3.003,1.466,3.531,2.03c0.186,0.199,0.445,0.289,0.713,0.245c0.268-0.046,0.488-0.224,0.596-0.473l15.731-36.109
			c0.178-0.409-0.01-0.884-0.419-1.062c-0.409-0.178-0.885,0.009-1.063,0.417l-2.057,4.72c-0.315-0.918-0.64-2.251-0.701-3.956
			c-0.133-3.716,1.364-7.648,4.33-11.371c3.218-4.04,4.653-8.612,4.712-8.804c0.108-0.348-0.032-0.725-0.34-0.92
			c-0.307-0.194-0.708-0.16-0.977,0.087l-0.807,0.74c-0.506,0.463-1.035,0.465-2.485,0.401l-0.163-0.007
			c-0.812-0.032-1.891,0.309-3.295,1.053l-0.048-0.033c0.026-0.139,0.015-0.282-0.033-0.415c-0.05-0.141-0.535-1.413-2.231-2.667
			c-0.71-0.525-1.074-1.171-1.253-1.621c-0.084-0.209-0.059-0.457,0.067-0.663c0.499-0.819,1.555-2.466,3.018-4.296
			c1.748-2.184,3.496-1.704,3.56-1.687c0.282,0.092,0.592,0.02,0.806-0.184c0.036-0.035,3.682-3.488,6.894-4.226
			c-0.02,1.03-0.068,2.625-0.188,4.465c-0.153,2.344-3.414,2.6-3.553,2.609c-0.444,0.03-0.78,0.414-0.751,0.858
			c0.029,0.445,0.409,0.782,0.858,0.752c1.277-0.084,3.455-0.698,4.487-2.338c0.761,1.291,1.764,3.356,1.917,5.49
			c0.254,3.55-1.85,9.462-1.861,9.494c-0.519,1.298-0.377,3.322,0.657,4.152c0.229,0.184,0.605,0.395,1.121,0.395
			c0.422,0,0.938-0.141,1.544-0.555c2.231-1.521,6.484-7.288,5.388-15.4c-0.964-7.134-9.68-17.305-11.137-18.962l-3.538-17.73
			c-0.093-0.472,0.569-0.682,0.767-0.246c1.751,3.885,4.599,11.309,5.011,19.237c0.182,3.466,1.456-9.969,1.92-15.025
			c0.04-0.444,0.658-0.504,0.787-0.081c0.9,2.973,2.312,9.457,0.859,17.797c-0.48,2.748,3.466-6.677,5.229-10.966
			c0.173-0.416,0.795-0.278,0.775,0.173c-0.153,3.324-0.787,9.836-3.316,15.231c-1.13,2.409,4.797-5.572,7.319-9.001
			c0.258-0.351,0.819-0.101,0.718,0.327c-0.573,2.453-1.916,7.19-4.741,12.979c-1.033,2.118,5.334-2.905,8.59-5.552
			c0.355-0.29,0.839,0.141,0.597,0.529c-1.553,2.441-4.374,6.528-7.371,9.122c-1.953,1.695,7.101-1.658,10.865-3.09
			c0.399-0.153,0.73,0.343,0.432,0.658c-1.86,1.945-5.826,5.656-10.692,7.678c-2.659,1.105,9.009-0.157,12.535-0.557
			c0.371-0.044,0.593,0.395,0.339,0.674c-1.299,1.42-4.769,4.458-12.067,6.609c-2.401,0.706,6.697,1.799,10.704,2.231
			C134.817,64.129,134.877,64.738,134.462,64.867z"/>
		<path id="XMLID_280_" class="st0" d="M100.554,49.89c-0.232-0.111-0.286-0.417-0.116-0.611c0.324-0.367,0.907-0.834,1.604-0.885
			c1.525-0.111,1.474,1.761-0.2,1.761C101.253,50.156,100.829,50.022,100.554,49.89z"/>
	</g>
	<g id="XMLID_15_">
		<path id="XMLID_68_" class="st0" d="M14.683,76.16C7.087,76.71,5,71.254,5,71.254s8.916-2.086,7.129-2.76
			c-5.382-2.017-6.927-8.807-6.927-8.807s9.276,0.892,7.597,0c-6.455-3.429-5.983-10.559-5.983-10.559s7.823,2.364,6.657,1.146
			c-4.571-4.777-2.994-10.325-2.994-10.325s5.511,2.893,4.942,1.715c-3.026-6.254,0.202-11.7,0.202-11.7s4.783,4.151,4.521,2.731
			c-1.816-9.917,2.943-12.111,2.943-12.111s2.639,4.285,2.824,3.228c1.412-7.968,4.942-9.078,4.942-9.078s1.569,3.286,1.715,2.723
			c1.82-7.048,6.859-8.17,6.859-8.17s0.561,4.204,1.009,3.429c4.91-8.436,11.7-7.666,11.7-7.666l-9.078,28.646
			c0,0-0.485,0.487-1.257,1.328c-2.496,2.966-9.217,11.414-10.004,17.24c-0.986,7.294,2.814,12.566,4.698,13.851
			c0.271,0.185,0.61,0.343,0.745,0.234c0.344-0.276,0.493-1.484,0.159-2.321c-0.092-0.255-2.24-6.291-1.962-10.181
			c0.245-3.421,2.306-6.555,2.94-7.445c-0.11-1.775-0.156-3.307-0.174-4.297c-0.009-0.479,0.198-0.928,0.568-1.23
			c0.381-0.311,0.877-0.427,1.362-0.319c3.122,0.694,6.379,3.441,7.384,4.344c0.918-0.114,2.943-0.033,4.819,2.314
			c1.52,1.9,2.618,3.612,3.137,4.464c0.388,0.638,0.458,1.424,0.187,2.102c-0.257,0.644-0.777,1.569-1.793,2.319
			c-1.011,0.747-1.459,1.486-1.608,1.777c0.006,0.525-0.237,1.021-0.672,1.34c-0.513,0.377-1.183,0.426-1.747,0.127
			c-1.533-0.813-2.236-0.88-2.47-0.867l-0.161,0.007c-0.86,0.038-1.584,0.07-2.237-0.078c0.72,1.632,1.883,3.887,3.532,5.957
			c3.209,4.027,4.827,8.327,4.681,12.434c-0.113,3.155-1.034,5.193-1.429,5.93l12.338,28.313c0.898-0.749,2.303-1.726,3.81-1.726
			c2.491,0,4.901,3.609,4.901,4.908v0.885c0,0.446-0.25,0.752-0.696,0.752H58.433c-0.351,0-0.661-0.199-0.768-0.533
			c-0.034-0.105-3.423-10.551-8.073-15.201c-4.581-4.581-7.606-5.426-7.639-5.435c-0.023-0.006-0.125-0.032-0.278-0.088
			c-0.982,1.442-2.317,2.848-3.8,4.16c2.013-0.236,4.505-0.289,5.899,0.579c0.593,0.37,0.981,0.896,1.124,1.522
			c0.783,3.444-0.681,5.58-3.473,8.107c-1.409,1.274-2.264,2.185-2.756,2.759l1.128,0.469c1.522-0.075,3.059-0.361,3.332-0.611
			c1.675-2.233,3.442-1.682,4.347-1.154c1.543,0.9,2.417,1.235,3.225,1.235c1.323,0,3.392,1.024,3.495,2.569
			c0.104,1.554-0.646,3.513-4.81,4.015c-1.342,0.162-4.821,0.216-8.853,0.216c-7.724,0-17.473-0.197-18.09-0.21
			c-0.041-0.001-0.083-0.005-0.124-0.012c-1.883-0.332-5.611-2.067-6.239-6.256c-0.19-1.265,0.973-4.692,2.769-9.775
			c0.358-1.012,0.704-1.993,1.004-2.872c0.848-3.16,1.202-5.35-0.295-4.318c-5.612,3.869-12.608,1.21-12.608,1.21
			s13.826-11.81,10.224-10.857c-8.673,2.296-12.039-1.682-12.039-1.682S17.713,75.94,14.683,76.16z M15.538,64.867
			c2.255,0.706,6.56,1.824,11.922,2.094c2.054,0.101-6.1,2.631-9.982,3.901c-0.452,0.149-0.323,0.819,0.149,0.787
			c2.84-0.19,9.021-1.001,11.652-1.864c3.115-1.025-6.512,5.729-11.127,8.904c-0.387,0.262-0.089,0.863,0.355,0.714
			c3.675-1.243,10.119-3.595,12.786-5.652c2.796-2.159-4.813,7.516-8.787,12.483c-0.299,0.375,0.123,0.744,0.569,0.569
			c4.118-1.621,7.626-7.325,9.901-9.017c1.49-1.109-7.815,16.035-12.407,24.399c-0.066,0.187-0.132,0.375-0.199,0.565
			c-1.13,3.2-2.839,8.036-2.695,8.997c0.581,3.871,4.348,4.787,4.869,4.895c1.397,0.028,22.952,0.45,26.648,0.004
			c3.519-0.425,3.428-1.791,3.394-2.306c-0.026-0.394-1.102-1.062-1.885-1.062c-1.286,0-2.498-0.557-4.038-1.455
			c-0.709-0.415-1.361-0.446-2.243,0.729c-0.302,0.403-0.921,0.678-1.645,0.868l2.797,0.918c0.377,0.124,0.608,0.475,0.545,0.866
			c-0.063,0.392-0.4,0.652-0.797,0.652H23.696c-0.446,0-0.807-0.554-0.807-1s0.361-1,0.807-1h16.578l-2.753-0.683
			c-0.295-0.097-0.492-0.238-0.541-0.524c-0.167-0.098-0.297-0.195-0.36-0.382c-0.074-0.221-0.049-0.436,0.07-0.638
			c0.075-0.128,0.817-1.309,3.651-3.874c2.842-2.571,3.539-4.095,2.982-6.545c-0.029-0.129-0.103-0.318-0.403-0.506
			c-1.387-0.865-5.315-0.395-7.581,0.12c-2.356,1.781-4.767,3.28-6.512,4.292c-1.451,0.842-2.4,1.327-2.44,1.347
			c-0.117,0.06-0.242,0.088-0.365,0.088c-0.294,0-0.577-0.161-0.72-0.441c-0.202-0.397-0.044-0.883,0.353-1.085
			c0.009-0.005,0.953-0.486,2.362-1.304c1.737-1.007,4.154-2.507,6.482-4.277c0.015-0.012,0.03-0.023,0.046-0.034
			c2.212-1.685,4.329-3.613,5.709-5.594c-0.81-0.611-1.646-1.589-1.915-3.129c-0.342-1.951,0.407-3.008,1.009-3.858
			c0.34-0.48,0.609-0.86,0.665-1.35c0.184-1.59,0.072-2.403,0.072-2.407c-0.068-0.44,0.234-0.852,0.675-0.92
			c0.437-0.067,0.853,0.234,0.92,0.675c0.015,0.1,0.145,1.033-0.063,2.838c-0.104,0.9-0.554,1.536-0.951,2.097
			c-0.537,0.759-0.962,1.359-0.736,2.647c0.225,1.288,1.045,2.009,1.693,2.388c0.411,0.24,0.74,0.334,0.739,0.334c0,0,0,0,0,0
			c0.139,0.035,3.432,0.702,8.372,5.642c4.337,4.336,7.494,13.082,8.282,15.082h11.792v0.378c0-0.68-1.659-3.31-3.094-3.31
			c-1.359,0-2.907,1.466-3.435,2.03c-0.186,0.199-0.397,0.289-0.664,0.245c-0.268-0.046-0.464-0.224-0.572-0.473L47.322,76.618
			c-0.178-0.409,0.016-0.884,0.425-1.062c0.409-0.178,0.888,0.009,1.066,0.417l2.059,4.72c0.315-0.918,0.641-2.251,0.702-3.956
			c0.133-3.716-1.364-7.648-4.33-11.371c-3.218-4.04-4.653-8.612-4.712-8.804c-0.108-0.348,0.032-0.725,0.34-0.92
			c0.307-0.194,0.708-0.16,0.977,0.087l0.807,0.74c0.506,0.463,1.035,0.465,2.485,0.401l0.163-0.007
			c0.812-0.032,1.891,0.309,3.295,1.053l0.048-0.033c-0.026-0.139-0.015-0.282,0.033-0.415c0.05-0.141,0.535-1.413,2.231-2.667
			c0.71-0.525,1.074-1.171,1.253-1.621c0.084-0.209,0.059-0.457-0.067-0.663c-0.499-0.819-1.555-2.466-3.018-4.296
			c-1.748-2.184-3.496-1.704-3.56-1.687c-0.282,0.092-0.592,0.02-0.806-0.184c-0.036-0.035-3.682-3.488-6.894-4.226
			c0.02,1.03,0.068,2.625,0.188,4.465c0.153,2.344,3.414,2.6,3.553,2.609c0.444,0.03,0.78,0.414,0.751,0.858
			c-0.029,0.445-0.409,0.782-0.858,0.752c-1.277-0.084-3.455-0.698-4.487-2.338c-0.761,1.291-1.764,3.356-1.917,5.49
			c-0.254,3.55,1.85,9.462,1.861,9.494c0.519,1.298,0.377,3.322-0.657,4.152c-0.229,0.184-0.605,0.395-1.121,0.395
			c-0.422,0-0.938-0.141-1.544-0.555c-2.231-1.521-6.484-7.288-5.388-15.4c0.964-7.134,9.68-17.305,11.137-18.962l3.538-17.73
			c0.093-0.472-0.569-0.682-0.767-0.246c-1.751,3.885-4.599,11.309-5.011,19.237c-0.182,3.466-1.456-9.969-1.92-15.025
			c-0.04-0.444-0.658-0.504-0.787-0.081c-0.9,2.973-2.312,9.457-0.859,17.797c0.48,2.748-3.466-6.677-5.229-10.966
			c-0.173-0.416-0.795-0.278-0.775,0.173c0.153,3.324,0.787,9.836,3.316,15.231c1.13,2.409-4.797-5.572-7.319-9.001
			c-0.258-0.351-0.819-0.101-0.718,0.327c0.573,2.453,1.916,7.19,4.741,12.979c1.033,2.118-5.334-2.905-8.59-5.552
			c-0.355-0.29-0.839,0.141-0.597,0.529c1.553,2.441,4.373,6.528,7.371,9.122c1.953,1.695-7.101-1.658-10.865-3.09
			c-0.399-0.153-0.73,0.343-0.432,0.658c1.86,1.945,5.826,5.656,10.692,7.678c2.659,1.105-9.009-0.157-12.535-0.557
			c-0.371-0.044-0.593,0.395-0.339,0.674c1.299,1.42,4.769,4.458,12.067,6.609c2.401,0.706-6.697,1.799-10.704,2.231
			C15.183,64.129,15.123,64.738,15.538,64.867z"/>
		<path id="XMLID_67_" class="st0" d="M49.446,49.89c0.232-0.111,0.286-0.417,0.116-0.611c-0.324-0.367-0.907-0.834-1.604-0.885
			c-1.525-0.111-1.474,1.761,0.2,1.761C48.747,50.156,49.171,50.022,49.446,49.89z"/>
	</g>
	<g id="XMLID_79_">
		<g id="XMLID_263_">
			<path id="XMLID_267_" class="st0" d="M94.807,67.094l2.429-4.308c0.394-0.769,0.092-1.707-0.743-1.931
				c-3.53-0.947-12.314-3.848-21.472-3.848c-9.714,0-18.132,2.871-21.524,3.828c-0.827,0.233-1.268,1.163-0.876,1.927l2.186,4.331
				v10.894c0,10.325-1.431,17.886,10.404,28.107l9.842,6.59l9.608-6.59c11.835-10.221,10.146-17.781,10.146-28.107V67.094z"/>
			<path id="XMLID_266_" class="st1" d="M91.807,69.195l0.811-4.951c0.333-0.673,0.062-1.493-0.643-1.688
				c-2.982-0.828-9.201-2.18-16.938-2.18c-8.206,0-14.112,1.721-16.978,2.557c-0.699,0.204-1.145,1.017-0.814,1.685l0.562,4.577
				v9.526c0,9.028-1.137,15.639,8.862,24.577l8.351,5.762l8.167-5.762c9.999-8.937,8.621-15.548,8.621-24.577V69.195z"/>
			<path id="XMLID_265_" class="st2" d="M92.857,64.187c0.338-0.679-0.066-1.507-0.782-1.705c-3.018-0.835-9.269-2.195-17.269-2.201
				v18.738c7,0.001,11.942,0.19,17.241,0.542c-0.002-0.249,0.003-10.366,0.003-10.366L92.857,64.187z"/>
			<path id="XMLID_264_" class="st3" d="M74.807,78.858c0,0,0.282,0,0.264,0c-6.051,0-11.811,0.223-17.041,0.571
				c-0.058,8.652-1.22,15.05,8.502,23.74l8.384,5.882l-0.109-0.027V78.858z"/>
		</g>
		<path id="XMLID_96_" d="M94.792,35.607c-0.351-0.571-0.935-0.931-1.602-0.99l-4.393-0.386c-0.315-0.147-1.549-0.782-5.683-3.366
			c-2.316-1.448-4.42-1.911-6.253-1.375c-0.74,0.216-1.328,0.565-1.79,0.938c-0.461-0.373-1.049-0.722-1.79-0.938
			c-1.834-0.535-3.937-0.072-6.253,1.375c-4.135,2.584-5.368,3.219-5.683,3.366l-4.393,0.385c-0.668,0.059-1.252,0.419-1.603,0.991
			c-0.351,0.571-0.409,1.255-0.16,1.877l6.502,16.255l-0.167,1.377c-0.091,0.751,0.215,1.471,0.819,1.926
			c0.604,0.455,1.383,0.552,2.082,0.256c1.484-0.628,2.744-0.769,3.548-0.401c2.034,0.932,3.608,1.383,4.891,1.383
			c0.53,0,1.011-0.077,1.454-0.229c0.293-0.101,0.542-0.237,0.754-0.392c0.213,0.155,0.461,0.292,0.754,0.392
			c0.443,0.152,0.923,0.229,1.454,0.229c1.282,0,2.857-0.451,4.891-1.383c0.805-0.369,2.064-0.226,3.548,0.401
			c0.7,0.295,1.478,0.2,2.082-0.256c0.604-0.455,0.91-1.175,0.819-1.926l-0.167-1.376l6.503-16.256
			C95.202,36.862,95.144,36.178,94.792,35.607z M73.529,55.762c-0.842,0.289-2.374-0.068-4.549-1.065
			c-1.634-0.749-3.535-0.371-4.989,0.169l0.111-0.916c0.043-0.348-0.004-0.705-0.134-1.033L57.597,36.99l4.081-0.358
			c0.353-0.011,1.022-0.207,6.633-3.714c1.665-1.04,3.138-1.426,4.26-1.114c1.158,0.322,1.426,1.286,1.447,1.327l-0.21-0.01v1.515
			c-1-0.543-3.136-1.085-5.552-0.017c-1.106,0.489-1.946,1.003-2.87,1.499c-1.859,0.999-3.268,1.788-4.953,1.826l0.065,1.613
			c2.071-0.046,3.785-0.96,5.753-2.018c0.897-0.482,1.601-0.981,2.65-1.445c2.445-1.081,4.907-0.026,4.907,0.349v2.244
			c0-0.326-3.069-0.592-5.311,0.363c-3.141,1.339-4.689,1.885-5.689,1.885v1.614c2,0,2.886-0.546,6.331-2.015
			c2.241-0.955,4.669-0.396,4.669-0.139v2.333c0-0.264-2.354-0.472-4.317,0.305c-2.013,0.796-3.683,1.533-4.683,1.533v1.614
			c1,0,2.24-0.446,5.273-1.646c1.923-0.761,3.727-0.332,3.727-0.122v2.414c0-0.226-2.031-0.391-3.653,0.133
			c-1.753,0.566-3.384,1.083-4.212,1.053l-0.004,1.613c0.046,0.002,0.121,0.003,0.169,0.003c0.901,0,2.006-0.317,4.529-1.133
			c1.602-0.518,3.171-0.175,3.171,0.014v2.413c0-0.202-1.632-0.344-2.936-0.006c-1.42,0.368-2.846,0.737-3.545,0.675L67.245,53.2
			c0.096,0.008,0.227,0.013,0.336,0.013c0.769,0,1.675-0.214,3.68-0.734c1.311-0.339,2.546-0.036,2.546,0.136v3.295l-0.403-0.101
			c0.015-0.096,0.147-0.122,0.147-0.123C73.545,55.696,73.622,55.73,73.529,55.762z M86.173,52.919
			c-0.13,0.325-0.177,0.681-0.135,1.03l0.112,0.917c-1.454-0.54-3.355-0.918-4.989-0.169c-2.175,0.997-3.706,1.355-4.549,1.065
			c-0.093-0.032-0.131-0.066-0.138-0.077c0,0-0.022,0.026-0.007,0.123l-0.66,0.1v-3.395c1-0.159,1.44-0.312,2.511-0.034
			c2.005,0.519,3.147,0.734,3.916,0.734c0.109,0,0.221-0.004,0.317-0.013l-0.135-1.608c-0.687,0.063-2.275-0.308-3.695-0.675
			c-1.146-0.297-1.913-0.223-2.913-0.064v-2.433c1-0.177,1.796-0.357,3.135,0.076c2.524,0.815,3.865,1.133,4.766,1.133
			c0.048,0,0.104-0.001,0.149-0.003L83.8,48.013c-0.825,0.028-2.611-0.487-4.364-1.053c-1.452-0.469-2.63-0.385-3.63-0.2v-2.45
			c1-0.206,1.941-0.421,3.578,0.226c3.033,1.2,4.422,1.646,5.422,1.646v-1.614c-1,0-2.819-0.737-4.832-1.533
			c-1.763-0.697-3.168-0.601-4.168-0.383v-2.339c1-0.269,2.519-0.635,4.534,0.223c3.444,1.468,5.466,2.015,6.466,2.015v-1.614
			c-1,0-2.684-0.546-5.825-1.885c-2.111-0.9-4.175-0.716-5.175-0.419v-2.349c1-0.435,2.743-1.131,4.879-0.188
			c1.049,0.464,1.996,0.962,2.893,1.445c1.968,1.058,3.677,1.972,5.749,2.018l0.041-1.613c-1.684-0.037-3.15-0.827-5.009-1.826
			c-0.924-0.497-1.916-1.01-3.022-1.499c-2.237-0.989-3.53-0.596-5.53-0.102v-1.407l0.054,0.008c0.004-0.01,0.527-0.974,1.658-1.305
			c1.126-0.329,2.62,0.053,4.302,1.104c5.611,3.507,6.284,3.703,6.638,3.714l4.083,0.358L86.173,52.919z"/>
		<g id="XMLID_72_">
			<ellipse id="XMLID_246_" class="st0" cx="73.844" cy="24.731" rx="6.455" ry="1.337"/>
			<path id="XMLID_244_" class="st0" d="M80.046,19.76c-4.11-0.572-8.293-0.572-12.403,0c-0.453,0.063-0.763,0.494-0.692,0.945
				c0.15,0.945,0.258,1.631,0.438,2.764c0.005-0.001,0.008-0.001,0.013-0.002c0.114-0.596,2.109-1.091,4.794-1.238l-0.017-0.446
				c1.499-0.059,2.25-0.055,3.748,0.018c-0.009,0.176-0.016,0.317-0.022,0.452c2.475,0.173,4.274,0.647,4.382,1.213
				c0.005,0.001,0.008,0.001,0.013,0.002c0.179-1.133,0.288-1.819,0.438-2.764C80.809,20.254,80.498,19.824,80.046,19.76z"/>
			<path id="XMLID_82_" class="st0" d="M87.946,18.713c0-1.273-0.961-2.086-2.238-2.232c-0.222-0.476-0.695-0.624-1.274-0.624
				H63.607c-0.98,0-1.662,0.772-1.325,1.692l1.288,3.452c0.203,0.556,0.733,0.856,1.325,0.856h1.003l-0.143-0.932
				c-0.085-0.537,0.052-1.112,0.376-1.55c0.326-0.44,0.804-0.732,1.344-0.807c2.1-0.292,4.243-0.445,6.368-0.445
				c2.125,0,4.268,0.146,6.368,0.439c0.54,0.075,1.018,0.358,1.344,0.798c0.324,0.438,0.461,1.027,0.376,1.564l-0.143,0.931h1.356
				c0.592,0,1.122-0.401,1.325-0.957l1.102-3.025c0.39,0.063,0.739,0.336,0.758,0.792l-0.794,6.868
				c-0.315,0.001-0.576,0.223-0.602,0.64l-0.282,4.678c-0.028,0.468,0.25,1.004,0.605,1.004h1.98c0.354,0,0.633-0.484,0.605-0.953
				l-0.282-4.661c-0.02-0.324-0.184-0.559-0.403-0.636l0.783-6.786L87.946,18.713z"/>
		</g>
	</g>
	<g id="XMLID_80_">
		<g id="XMLID_291_">
			<path id="XMLID_325_" d="M42.523,125.898c-0.186-0.198-0.417-0.355-0.69-0.469c0.203-0.161,0.37-0.346,0.499-0.551
				c0.209-0.335,0.297-0.696,0.261-1.076c-0.069-0.725-0.387-1.268-0.944-1.615c-0.541-0.336-1.247-0.463-2.099-0.374
				c-0.592,0.061-1.111,0.232-1.54,0.508c-0.426,0.273-0.742,0.57-0.94,0.885l-0.04,0.063l0.172,1.562l1.082-0.119l0.091-1.142
				c0.113-0.126,0.261-0.24,0.442-0.34c0.203-0.112,0.458-0.184,0.759-0.215c0.52-0.052,0.916,0.01,1.177,0.188
				c0.252,0.172,0.39,0.407,0.42,0.717c0.031,0.318-0.043,0.568-0.228,0.764c-0.189,0.201-0.519,0.327-0.98,0.375l-1.037,0.108
				l0.126,1.196l1.034-0.108c0.484-0.049,0.858,0.006,1.111,0.166c0.238,0.15,0.372,0.404,0.408,0.778
				c0.032,0.332-0.064,0.606-0.295,0.837c-0.239,0.239-0.601,0.385-1.076,0.434c-0.41,0.043-0.747-0.034-1.025-0.232
				c-0.271-0.193-0.419-0.44-0.453-0.755l-0.023-0.212l-1.151,0.125l-0.159,0.047l-0.039,0.181l0.003,0.032
				c0.064,0.748,0.401,1.298,1.002,1.632c0.463,0.258,0.985,0.389,1.557,0.389c0.134,0,0.271-0.007,0.41-0.022
				c0.839-0.087,1.511-0.359,1.998-0.811c0.506-0.469,0.728-1.075,0.659-1.801C42.969,126.582,42.804,126.198,42.523,125.898z"/>
			<path id="XMLID_324_" d="M49.299,127.585l-0.267-3.478l0.811-0.201l-0.076-1.023l-3.074,0.241l0.084,1.022l0.833,0.072
				l0.093,1.161c-0.762,0.061-1.229,0.1-1.99,0.166l-0.101-1.161l0.809-0.209l-0.086-1.021l-0.212,0.018
				c-1.057,0.089-1.586,0.136-2.643,0.233l-0.212,0.02l0.094,1.021l0.834,0.064l0.312,3.475l-0.8,0.213l0.094,1.016l0.212-0.02
				c1.039-0.096,1.559-0.141,2.599-0.229l0.212-0.018l-0.085-1.016l-0.825-0.07l-0.098-1.126c0.758-0.066,1.223-0.104,1.982-0.165
				l0.09,1.128l-0.802,0.205l0.083,1.016l0.212-0.017c1.042-0.086,1.563-0.126,2.606-0.204l0.213-0.016l-0.076-1.016L49.299,127.585
				z"/>
			<path id="XMLID_321_" d="M55.442,127.249c-0.001-0.006-0.001-0.011-0.002-0.017c-0.005-0.064-0.01-0.13-0.014-0.198l-0.152-2.589
				c-0.038-0.645-0.288-1.138-0.743-1.464c-0.443-0.316-1.006-0.454-1.674-0.412c-0.437,0.029-0.844,0.119-1.208,0.268
				c-0.366,0.15-0.68,0.342-0.934,0.571l-0.077,0.069l0.096,1.359l1.153-0.08l0.079-0.674c0.083-0.074,0.191-0.139,0.321-0.191
				c0.165-0.067,0.362-0.108,0.586-0.123c0.305-0.02,0.544,0.04,0.713,0.176c0.165,0.132,0.254,0.321,0.269,0.575l0.025,0.414
				l-0.808,0.051c-0.766,0.05-1.372,0.243-1.802,0.573c-0.455,0.35-0.665,0.824-0.623,1.408c0.04,0.555,0.241,0.983,0.599,1.273
				c0.309,0.25,0.724,0.377,1.235,0.377c0.072,0,0.145-0.002,0.221-0.007c0.358-0.024,0.693-0.136,0.995-0.334
				c0.156-0.102,0.298-0.216,0.425-0.341c0.021,0.093,0.046,0.194,0.076,0.303l0.045,0.169l0.174-0.011
				c0.513-0.032,0.77-0.047,1.284-0.076l0.213-0.012l-0.059-1.025L55.442,127.249z M53.987,126.635
				c-0.09,0.17-0.24,0.326-0.447,0.464c-0.227,0.151-0.487,0.237-0.774,0.255c-0.243,0.016-0.424-0.017-0.536-0.1
				c-0.066-0.049-0.155-0.139-0.171-0.367c-0.014-0.198,0.064-0.37,0.237-0.527c0.186-0.168,0.459-0.264,0.812-0.287l0.84-0.053
				L53.987,126.635z"/>
			<path id="XMLID_320_" d="M61.899,126.859l-0.139-3.486l0.818-0.171l-0.038-1.024l-3.08,0.127l0.046,1.024l0.829,0.103l0.05,1.164
				c-0.763,0.033-1.231,0.055-1.994,0.092l-0.058-1.163l0.816-0.179l-0.048-1.024l-0.213,0.01c-1.059,0.05-1.589,0.077-2.648,0.135
				l-0.213,0.012l0.056,1.024l0.83,0.095l0.183,3.483l-0.807,0.183l0.056,1.018l0.213-0.012c1.041-0.057,1.562-0.084,2.604-0.134
				l0.213-0.01l-0.048-1.018l-0.821-0.1l-0.056-1.129c0.76-0.037,1.226-0.059,1.985-0.092l0.048,1.13l-0.808,0.175l0.046,1.019
				l0.213-0.01c1.044-0.047,1.566-0.068,2.61-0.107l0.213-0.008l-0.038-1.019L61.899,126.859z"/>
			<path id="XMLID_319_" d="M68.873,126.657l-0.068-3.488l0.82-0.154l-0.017-1.024l-2.155,0.042l-0.061,0.1
				c-0.807,1.342-1.261,2.104-1.958,3.294l-0.064-2.176l0.819-0.162l-0.028-1.024l-1.039,0.028
				c-0.728,0.022-1.091,0.033-1.819,0.058l-0.213,0.007l0.036,1.024l0.828,0.112l0.113,3.487l-0.81,0.167l0.035,1.02l0.213-0.007
				c0.715-0.025,1.073-0.036,1.788-0.057l0.118-0.004l0.06-0.102c0.784-1.347,1.233-2.109,1.941-3.296l0.049,2.185l-0.811,0.159
				l0.025,1.019l0.213-0.005c1.042-0.026,1.564-0.037,2.606-0.055l0.213-0.004l-0.017-1.019L68.873,126.657z"/>
			<path id="XMLID_294_" d="M75.152,124.858l-0.001-0.61c-0.001-0.78-0.211-1.276-0.623-1.75c-0.421-0.485-1.047-0.678-1.839-0.687
				c-0.696,0.005-1.301,0.306-1.797,0.866c-0.49,0.553-0.733,1.248-0.721,2.067l0.003,0.205c0.012,0.845,0.264,1.579,0.75,2.111
				c0.485,0.532,1.136,0.798,1.935,0.798c0.009,0,0.017,0,0.026,0c0.471,0,0.882-0.07,1.222-0.208
				c0.341-0.138,0.621-0.271,0.833-0.475l0.122-0.137l-0.608-1.012l-0.191,0.167c-0.162,0.147-0.359,0.259-0.584,0.345
				c-0.227,0.087-0.497,0.122-0.802,0.124c-0.4-0.012-0.684-0.148-0.9-0.426c-0.196-0.253-0.315-0.757-0.353-1.14
				c1.274-0.014,1.977-0.237,3.315-0.237H75.152z M73.464,123.355c0.165,0.203,0.253,0.448,0.267,0.747
				c-0.79,0.004-1.275,0.007-2.059,0.016c0.061-0.282,0.175-0.523,0.339-0.72c0.193-0.231,0.418-0.344,0.688-0.347
				C73.038,123.048,73.295,123.148,73.464,123.355z"/>
			<path id="XMLID_295_" d="M78.872,123.35l-0.213-0.002l-0.012,1.197l0.213,0.002c2.697,0.028,4.016,0.055,6.72,0.135l0.213,0.006
				l0.036-1.197l-0.213-0.006C82.905,123.405,81.582,123.378,78.872,123.35z"/>
			<path id="XMLID_296_" d="M92.969,122.523c-0.366-0.171-0.787-0.269-1.252-0.291c-0.857-0.045-1.537,0.214-2.024,0.758
				c-0.473,0.529-0.73,1.21-0.762,2.025l-0.008,0.209c-0.033,0.818,0.164,1.52,0.586,2.086c0.43,0.578,1.078,0.891,1.925,0.931
				c0.045,0.002,0.09,0.003,0.135,0.003c0.566,0,1.081-0.171,1.532-0.511c0.503-0.378,0.763-0.839,0.772-1.369l-0.055-0.239
				l-1.254-0.065l-0.011,0.213c-0.011,0.226-0.117,0.489-0.322,0.639c-0.219,0.16-0.461,0.298-0.74,0.298h0
				c-0.443,0-0.74-0.261-0.907-0.569c-0.185-0.34-0.267-0.81-0.245-1.319l0.009-0.229c0.021-0.496,0.142-0.922,0.358-1.247
				c0.198-0.296,0.51-0.433,0.956-0.414c0.207,0.01,0.391,0.047,0.547,0.115c0.132,0.057,0.243,0.125,0.33,0.206l0.194,0.954
				l1.175,0.061l0.023-1.495l-0.05-0.061C93.644,122.927,93.337,122.695,92.969,122.523z"/>
			<path id="XMLID_297_" d="M101.102,123.93l0.076-1.022l-2.151-0.154l-0.069,0.094c-0.926,1.263-1.447,1.981-2.251,3.103
				l0.134-2.173l0.831-0.087l0.066-1.023l-1.038-0.065c-0.727-0.045-1.09-0.067-1.817-0.107l-0.212-0.012l-0.058,1.023l0.814,0.186
				l-0.205,3.482l-0.822,0.093l-0.057,1.018l0.213,0.012c0.715,0.04,1.072,0.062,1.787,0.106l0.118,0.007l0.068-0.097
				c0.904-1.27,1.42-1.989,2.233-3.106l-0.15,2.181l-0.823,0.084l-0.068,1.018l0.213,0.014c1.041,0.069,1.561,0.106,2.601,0.183
				l0.213,0.015l0.075-1.017l-0.803-0.199l0.249-3.479L101.102,123.93z"/>
			<path id="XMLID_298_" d="M102.159,122.982l-0.212-0.017l-0.079,1.022l0.811,0.203l-0.108,1.344
				c-0.062,0.778-0.171,1.328-0.323,1.632c-0.127,0.253-0.303,0.357-0.574,0.336l-0.41-0.021l-0.118,1.251l0.494,0.038
				c0.76,0.059,1.329-0.185,1.694-0.722c0.346-0.51,0.559-1.294,0.65-2.399l0.108-1.306c0.538,0.045,0.887,0.074,1.424,0.122
				l-0.303,3.437l-0.825,0.069l-0.087,1.016l0.212,0.018c1.04,0.089,1.559,0.136,2.599,0.233l0.212,0.02l0.095-1.015l-0.799-0.214
				l0.317-3.474l0.834-0.062l0.095-1.021l-1.036-0.096C104.967,123.207,104.05,123.129,102.159,122.982z"/>
			<path id="XMLID_301_" d="M112.707,128.72c0-0.006,0.001-0.011,0.001-0.017c0.006-0.064,0.012-0.131,0.019-0.198l0.281-2.578
				c0.07-0.642-0.094-1.17-0.49-1.567c-0.384-0.386-0.917-0.617-1.583-0.685c-0.437-0.045-0.853-0.023-1.237,0.063
				c-0.387,0.087-0.729,0.224-1.016,0.408l-0.087,0.056l-0.132,1.356l1.151,0.113l0.19-0.652c0.094-0.059,0.212-0.105,0.349-0.136
				c0.173-0.038,0.375-0.046,0.599-0.023c0.303,0.031,0.53,0.129,0.675,0.292c0.141,0.159,0.197,0.359,0.17,0.613l-0.044,0.412
				l-0.806-0.084c-0.763-0.079-1.394,0.01-1.874,0.265c-0.507,0.269-0.793,0.701-0.849,1.284c-0.053,0.553,0.074,1.009,0.379,1.355
				c0.3,0.341,0.763,0.545,1.375,0.607c0.355,0.037,0.705-0.018,1.038-0.164c0.171-0.074,0.33-0.163,0.477-0.265
				c0.005,0.095,0.014,0.199,0.024,0.312l0.016,0.174l1.665,0.181l0.113-1.02L112.707,128.72z M110.601,127.171l0.838,0.088
				l-0.065,0.613c-0.117,0.152-0.291,0.281-0.518,0.382c-0.253,0.113-0.518,0.151-0.807,0.124c-0.243-0.025-0.416-0.089-0.512-0.189
				c-0.089-0.092-0.124-0.22-0.107-0.39c0.02-0.198,0.125-0.354,0.322-0.48C109.963,127.185,110.25,127.136,110.601,127.171z"/>
		</g>
		<path id="XMLID_69_" d="M128.876,123.929c-0.74-1.989-2.656-3.393-5.126-3.754c-32.759-4.785-64.608-4.786-97.365,0.001
			c-2.463,0.36-4.376,1.757-5.117,3.738c-0.701,1.875-0.248,4.008,1.212,5.707l0.629,0.735c1.363,1.594,2.773,3.241,4.485,4.874
			c0.488,0.696,3.054,3.006,15.281,1.964c1.461-0.125,2.8-0.24,4.026-0.346c0.576-0.05,1.13-0.098,1.664-0.144l0.003,2.207
			c0.003,0.422,0.112,0.862,0.375,1.168c1.112,1.291,3.829,2.089,8.442,2.36c6.296,0.371,11.24,1.759,12.974,2.442
			c0.15,0.059,0.305,0.088,0.46,0.088c0.268,0,0.531-0.087,0.752-0.256c0.355-0.271,0.538-0.699,0.49-1.145
			c-0.202-1.886-2.389-4.086-3.987-5.693c-0.288-0.29-0.547-0.55-0.753-0.77c1.009-0.539,2.634-1.41,3.859-2.074
			c1.976-1.07,2.016-2.642,1.994-3.524c1.318-0.009,2.636-0.009,3.953,0.001c-0.022,0.882,0.02,2.453,1.994,3.523
			c1.226,0.664,2.851,1.535,3.859,2.074c-0.206,0.219-0.465,0.48-0.753,0.77c-1.597,1.606-3.784,3.806-3.987,5.693
			c-0.048,0.446,0.136,0.875,0.49,1.145c0.221,0.169,0.485,0.256,0.752,0.256c0.154,0,0.31-0.029,0.46-0.088
			c1.734-0.682,6.678-2.071,12.974-2.442c4.613-0.271,7.329-1.069,8.442-2.36c0.264-0.306,0.372-0.746,0.375-1.168l0.003-2.207
			c0.534,0.046,1.088,0.094,1.664,0.144c1.226,0.106,2.565,0.221,4.026,0.346c12.877,1.097,15.041-1.524,15.344-2.061l-0.083-0.047
			c1.543-1.485,2.711-2.842,4.047-4.399c0.295-0.343,0.598-0.696,0.915-1.063C129.116,127.933,129.573,125.805,128.876,123.929z
			 M70.414,133.661c-1.261,0.683-2.944,1.559-3.942,2.093c-0.422,0.226-0.711,0.614-0.79,1.086c-0.08,0.472,0.061,0.937,0.385,1.288
			c0.227,0.246,0.526,0.545,0.866,0.886c1.087,1.094,2.805,2.82,3.357,4.123c-2.227-0.76-6.975-1.967-12.808-2.31
			c-4.239-0.249-6.105-0.919-6.914-1.403c9.657-2.172,9.562-3.034,9.484-3.732c-0.145-1.31-1.968-1.253-3.435-1.204
			c-1.903,0.061-5.066,0.334-9.853,0.748c-1.226,0.106-2.564,0.221-4.024,0.346c-6.747,0.576-10.287,0.088-12.085-0.437
			c13.581-2.241,27.242-3.449,40.908-3.626C71.583,132.292,71.564,133.038,70.414,133.661z M49.807,137.856v-1.291
			c3-0.257,5.264-0.43,6.687-0.472C54.843,136.623,52.807,137.289,49.807,137.856z M99.807,137.856
			c-2-0.566-5.036-1.232-6.687-1.763c1.423,0.042,3.687,0.215,6.687,0.472V137.856z M107.567,135.584
			c-1.46-0.125-2.798-0.24-4.024-0.346c-4.787-0.414-7.95-0.687-9.853-0.748c-1.466-0.048-3.289-0.106-3.435,1.204
			c-0.078,0.698-0.173,1.56,9.484,3.732c-0.81,0.483-2.675,1.153-6.914,1.403c-5.833,0.343-10.582,1.549-12.808,2.31
			c0.552-1.303,2.269-3.029,3.357-4.123c0.339-0.341,0.639-0.639,0.866-0.886c0.324-0.351,0.465-0.817,0.385-1.288
			c-0.08-0.472-0.368-0.86-0.79-1.086c-0.998-0.534-2.682-1.41-3.942-2.093c-1.149-0.622-1.17-1.367-1.149-2.137
			c13.647,0.185,27.286,1.399,40.847,3.642C117.773,135.684,114.235,136.154,107.567,135.584z M126.433,128.566
			c-0.319,0.368-0.624,0.723-0.92,1.068c-1.294,1.507-2.422,2.821-3.885,4.236c-15.449-2.658-31.004-3.987-46.56-3.987
			c-15.556,0-31.11,1.329-46.56,3.987c-1.566-1.515-2.889-3.063-4.171-4.563l-0.632-0.738c-1.087-1.264-1.424-2.755-0.924-4.09
			c0.539-1.442,1.938-2.429,3.838-2.706c32.601-4.762,64.297-4.763,96.899,0c1.905,0.279,3.307,1.27,3.846,2.72
			C127.859,125.825,127.52,127.31,126.433,128.566z"/>
	</g>
</g>
</svg>
