<?xml version="1.0" encoding="utf-8"?>
<!-- Generator: Adobe Illustrator 19.0.0, SVG Export Plug-In . SVG Version: 6.00 Build 0)  -->
<svg version="1.1" id="Слой_1" xmlns="http://www.w3.org/2000/svg" xmlns:xlink="http://www.w3.org/1999/xlink" x="0px" y="0px"
	 width="1000px" height="1000px" viewBox="20 -220 1000 1000" style="enable-background:new 20 -220 1000 1000;"
	 xml:space="preserve">
<style type="text/css">
	.st0{fill:#008055;}
	.st1{fill:none;stroke:#FFFFFF;stroke-miterlimit:10;}
	.st2{fill:#FFFFFF;}
</style>
<g id="XMLID_3_">
	<g id="XMLID_1_">
		<path id="XMLID_384_" d="M265.4-174.9v63.3c0,1-0.7,1.7-1.7,1.7h-50c-1,0-1.7-0.7-1.7-1.7v-63.3c0-1,0.7-1.7,1.7-1.7h50
			C264.7-176.6,265.4-175.9,265.4-174.9z M262-113.2v-46.7h-46.7c0,16.2,0,46.7,0,46.7H262z M262-163.2v-10h-46.7c0,0,0,3,0,3.3h20
			v3.3h-20c0,0.7,0,2.3,0,3.3C215.4-163.2,262-163.2,262-163.2z"/>
		<rect id="XMLID_383_" x="250.4" y="-121.6" width="6.7" height="3.3"/>
		<rect id="XMLID_382_" x="250.4" y="-128.2" width="6.7" height="3.3"/>
		<rect id="XMLID_381_" x="250.4" y="-134.9" width="6.7" height="3.3"/>
		<rect id="XMLID_380_" x="250.4" y="-141.6" width="6.7" height="3.3"/>
		<rect id="XMLID_379_" x="250.4" y="-148.2" width="6.7" height="3.3"/>
		<rect id="XMLID_378_" x="248.7" y="-156.6" width="5" height="3.3"/>
		<path id="XMLID_375_" d="M248.7-208.2v25h-3.3v-23.3h-56.7v18.3c0,1-0.7,1.7-1.7,1.7h-18.3c0,1.8,0,16.7,0,16.7h-3.3v-18.3
			c0-0.2,0.2-0.3,0.2-0.5v-0.2c0.2-0.2,0.2-0.3,0.3-0.5l20-20c0.2-0.2,0.3-0.2,0.5-0.3h0.2c0.2-0.2,0.3-0.2,0.5-0.2h60
			C248-209.9,248.7-209.2,248.7-208.2z M185.4-189.9v-14.3l-7.2,7.2l-7.2,7.1H185.4z"/>
		<rect id="XMLID_374_" x="240.4" y="-121.6" width="6.7" height="3.3"/>
		<rect id="XMLID_373_" x="240.4" y="-128.2" width="6.7" height="3.3"/>
		<rect id="XMLID_372_" x="240.4" y="-134.9" width="6.7" height="3.3"/>
		<rect id="XMLID_371_" x="240.4" y="-141.6" width="6.7" height="3.3"/>
		<rect id="XMLID_370_" x="240.4" y="-148.2" width="6.7" height="3.3"/>
		<rect id="XMLID_369_" x="240.4" y="-156.6" width="5" height="3.3"/>
		<rect id="XMLID_368_" x="238.7" y="-169.9" width="5" height="3.3"/>
		<rect id="XMLID_367_" x="210.4" y="-193.2" width="30" height="3.3"/>
		<rect id="XMLID_366_" x="228.7" y="-201.6" width="11.7" height="3.3"/>
		<rect id="XMLID_365_" x="230.4" y="-121.6" width="6.7" height="3.3"/>
		<rect id="XMLID_364_" x="230.4" y="-128.2" width="6.7" height="3.3"/>
		<rect id="XMLID_363_" x="230.4" y="-134.9" width="6.7" height="3.3"/>
		<rect id="XMLID_362_" x="230.4" y="-141.6" width="6.7" height="3.3"/>
		<rect id="XMLID_361_" x="230.4" y="-148.2" width="6.7" height="3.3"/>
		<rect id="XMLID_360_" x="232" y="-156.6" width="5" height="3.3"/>
		<rect id="XMLID_359_" x="223.7" y="-156.6" width="5" height="3.3"/>
		<rect id="XMLID_358_" x="220.4" y="-121.6" width="6.7" height="3.3"/>
		<rect id="XMLID_357_" x="220.4" y="-128.2" width="6.7" height="3.3"/>
		<rect id="XMLID_356_" x="220.4" y="-134.9" width="6.7" height="3.3"/>
		<rect id="XMLID_355_" x="220.4" y="-141.6" width="6.7" height="3.3"/>
		<rect id="XMLID_354_" x="220.4" y="-148.2" width="6.7" height="3.3"/>
		<path id="XMLID_343_" d="M208.7-119.9v8.3c0,1-0.7,1.7-1.7,1.7h-20h-20c-1,0-1.7-0.7-1.7-1.7v-8.3v-8.3v-8.3v-8.3v-8.3v-8.3
			c0-1,0.7-1.7,1.7-1.7h20c1,0,1.7,0.7,1.7,1.7v8.3v8.3v6.7H207c1,0,1.7,0.7,1.7,1.7v8.3V-119.9z M205.4-113.2v-5h-16.7v5H205.4z
			 M205.4-121.6v-5h-16.7v5H205.4z M205.4-129.9v-5h-16.7v5H205.4z M185.4-113.2v-5h-16.7v5H185.4z M185.4-121.6v-5h-16.7v5H185.4z
			 M185.4-129.9v-5h-16.7v5H185.4z M185.4-138.2v-5h-16.7v5H185.4z M185.4-146.6v-5h-16.7v5H185.4z M185.4-154.9v-5h-16.7v5H185.4z"
			/>
		<rect id="XMLID_342_" x="188.7" y="-126.6" class="st0" width="16.7" height="5"/>
		<rect id="XMLID_341_" x="168.7" y="-134.9" class="st0" width="16.7" height="5"/>
		<rect id="XMLID_340_" x="168.7" y="-143.2" class="st0" width="16.7" height="5"/>
		<polygon id="XMLID_339_" class="st0" points="185.4,-204.2 185.4,-189.9 171,-189.9 178.2,-197.1 		"/>
		<path id="XMLID_337_" class="st1" d="M263.7-176.6h-50c-1,0-1.7,0.7-1.7,1.7v63.3c0,1,0.7,1.7,1.7,1.7h50c1,0,1.7-0.7,1.7-1.7
			v-63.3C265.4-175.9,264.7-176.6,263.7-176.6z"/>
		<path id="XMLID_336_" class="st1" d="M262-113.2h-46.7c0,0,0-30.5,0-46.7H262V-113.2z"/>
		<path id="XMLID_335_" class="st1" d="M262-163.2h-46.7c0-1,0-2.7,0-3.3h20v-3.3h-20c0-0.3,0-3.3,0-3.3H262V-163.2z"/>
		<rect id="XMLID_334_" x="223.7" y="-156.6" class="st1" width="5" height="3.3"/>
		<rect id="XMLID_333_" x="232" y="-156.6" class="st1" width="5" height="3.3"/>
		<rect id="XMLID_332_" x="240.4" y="-156.6" class="st1" width="5" height="3.3"/>
		<rect id="XMLID_331_" x="248.7" y="-156.6" class="st1" width="5" height="3.3"/>
		<rect id="XMLID_330_" x="220.4" y="-148.2" class="st1" width="6.7" height="3.3"/>
		<rect id="XMLID_329_" x="230.4" y="-148.2" class="st1" width="6.7" height="3.3"/>
		<rect id="XMLID_328_" x="240.4" y="-148.2" class="st1" width="6.7" height="3.3"/>
		<rect id="XMLID_327_" x="250.4" y="-148.2" class="st1" width="6.7" height="3.3"/>
		<rect id="XMLID_326_" x="220.4" y="-141.6" class="st1" width="6.7" height="3.3"/>
		<rect id="XMLID_325_" x="230.4" y="-141.6" class="st1" width="6.7" height="3.3"/>
		<rect id="XMLID_324_" x="240.4" y="-141.6" class="st1" width="6.7" height="3.3"/>
		<rect id="XMLID_323_" x="250.4" y="-141.6" class="st1" width="6.7" height="3.3"/>
		<rect id="XMLID_322_" x="220.4" y="-134.9" class="st1" width="6.7" height="3.3"/>
		<rect id="XMLID_321_" x="230.4" y="-134.9" class="st1" width="6.7" height="3.3"/>
		<rect id="XMLID_320_" x="240.4" y="-134.9" class="st1" width="6.7" height="3.3"/>
		<rect id="XMLID_319_" x="250.4" y="-134.9" class="st1" width="6.7" height="3.3"/>
		<rect id="XMLID_318_" x="220.4" y="-128.2" class="st1" width="6.7" height="3.3"/>
		<rect id="XMLID_317_" x="230.4" y="-128.2" class="st1" width="6.7" height="3.3"/>
		<rect id="XMLID_316_" x="240.4" y="-128.2" class="st1" width="6.7" height="3.3"/>
		<rect id="XMLID_315_" x="250.4" y="-128.2" class="st1" width="6.7" height="3.3"/>
		<rect id="XMLID_314_" x="220.4" y="-121.6" class="st1" width="6.7" height="3.3"/>
		<rect id="XMLID_313_" x="230.4" y="-121.6" class="st1" width="6.7" height="3.3"/>
		<rect id="XMLID_308_" x="240.4" y="-121.6" class="st1" width="6.7" height="3.3"/>
		<rect id="XMLID_307_" x="250.4" y="-121.6" class="st1" width="6.7" height="3.3"/>
		<path id="XMLID_306_" class="st1" d="M168.7-186.6H187c1,0,1.7-0.7,1.7-1.7v-18.3h56.7v23.3h3.3v-25c0-1-0.7-1.7-1.7-1.7h-60
			c-0.2,0-0.3,0-0.5,0.2h-0.2c-0.2,0.2-0.3,0.2-0.5,0.3l-20,20c-0.2,0.2-0.2,0.3-0.3,0.5v0.2c0,0.2-0.2,0.3-0.2,0.5v18.3h3.3
			C168.7-169.9,168.7-184.7,168.7-186.6z"/>
		<polygon id="XMLID_305_" class="st1" points="178.2,-197.1 185.4,-204.2 185.4,-189.9 171,-189.9 		"/>
		<path id="XMLID_304_" class="st1" d="M207-138.2h-18.3v-6.7v-8.3v-8.3c0-1-0.7-1.7-1.7-1.7h-20c-1,0-1.7,0.7-1.7,1.7v8.3v8.3v8.3
			v8.3v8.3v8.3c0,1,0.7,1.7,1.7,1.7h20h20c1,0,1.7-0.7,1.7-1.7v-8.3v-8.3v-8.3C208.7-137.6,208-138.2,207-138.2z"/>
		<rect id="XMLID_303_" x="168.7" y="-118.2" class="st1" width="16.7" height="5"/>
		<rect id="XMLID_302_" x="168.7" y="-126.6" class="st1" width="16.7" height="5"/>
		<rect id="XMLID_301_" x="168.7" y="-134.9" class="st1" width="16.7" height="5"/>
		<rect id="XMLID_300_" x="168.7" y="-143.2" class="st1" width="16.7" height="5"/>
		<rect id="XMLID_299_" x="168.7" y="-151.6" class="st1" width="16.7" height="5"/>
		<rect id="XMLID_298_" x="168.7" y="-159.9" class="st1" width="16.7" height="5"/>
		<rect id="XMLID_297_" x="188.7" y="-118.2" class="st1" width="16.7" height="5"/>
		<rect id="XMLID_296_" x="188.7" y="-126.6" class="st1" width="16.7" height="5"/>
		<rect id="XMLID_295_" x="188.7" y="-134.9" class="st1" width="16.7" height="5"/>
		<rect id="XMLID_294_" x="228.7" y="-201.6" class="st1" width="11.7" height="3.3"/>
		<rect id="XMLID_293_" x="210.4" y="-193.2" class="st1" width="30" height="3.3"/>
		<rect id="XMLID_292_" x="238.7" y="-169.9" class="st1" width="5" height="3.3"/>
	</g>
	<g id="XMLID_2_">
		<rect id="XMLID_227_" x="68.7" y="-187.3" class="st0" width="3.2" height="9.7"/>
		<rect id="XMLID_226_" x="88.1" y="-187.3" class="st0" width="3.2" height="9.7"/>
		<rect id="XMLID_225_" x="78.4" y="-193.8" class="st0" width="3.2" height="3.2"/>
		<rect id="XMLID_224_" x="78.4" y="-206.7" class="st0" width="3.2" height="3.2"/>
		<rect id="XMLID_223_" x="71.9" y="-200.2" class="st0" width="16.1" height="3.2"/>
		<path id="XMLID_222_" class="st0" d="M102.4-142.2h3.3c-0.7,4.9-4.6,8.8-9.6,9.6v-3.3C99.3-136.5,101.8-139,102.4-142.2z"/>
		<path id="XMLID_221_" class="st0" d="M105.7-145.4h-3.3c-0.7-3.2-3.1-5.6-6.3-6.3v-3.3C101.1-154.2,104.9-150.3,105.7-145.4z"/>
		<path id="XMLID_220_" class="st0" d="M92.9-154.9v3.3c-3.2,0.6-5.6,3.1-6.3,6.3h-3.3C84.1-150.3,87.9-154.2,92.9-154.9z"/>
		<path id="XMLID_219_" class="st0" d="M92.9-135.9v3.3c-4.9-0.7-8.8-4.6-9.5-9.6h3.3C87.3-139,89.7-136.5,92.9-135.9z"/>
		<rect id="XMLID_218_" x="55.8" y="-116.4" class="st0" width="9.7" height="3.2"/>
		<rect id="XMLID_217_" x="33.2" y="-116.4" class="st0" width="9.7" height="3.2"/>
		<path id="XMLID_99_" d="M130-176v25.8c0,8-6.5,14.5-14.5,14.5h-8.9c-1.1,1.6-2.4,2.9-4,4c-6.7,4.4-15.7,2.6-20.1-4H70.3
			c-0.9,0-1.6,0.7-1.6,1.6v22.6c0,0.9-0.7,1.6-1.6,1.6H54.2c-0.9,0-1.6-0.7-1.6-1.6v-25.8c0-8,6.5-14.5,14.5-14.5h15.4
			c1.1-1.6,2.4-2.9,4-4c6.7-4.4,15.7-2.6,20.1,4h5.7c0.9,0,1.6-0.7,1.6-1.6v-19.4c0-0.9-0.7-1.6-1.6-1.6H47.7
			c-0.9,0-1.6,0.7-1.6,1.6v61.3c0,0.9-0.7,1.6-1.6,1.6H31.6c-0.9,0-1.6-0.7-1.6-1.6V-176c0-8,6.5-14.5,14.5-14.5h30.6v-3.2h-4.8
			c-0.9,0-1.6-0.7-1.6-1.6v-6.4c0-0.9,0.7-1.6,1.6-1.6h4.8v-4.8c0-0.9,0.7-1.6,1.6-1.6h6.5c0.9,0,1.6,0.7,1.6,1.6v4.8h4.8
			c0.9,0,1.6,0.7,1.6,1.6v6.4c0,0.9-0.7,1.6-1.6,1.6h-4.8v3.2h30.7C123.5-190.5,130-184,130-176z M126.8-150.2V-176
			c0-6.2-5.1-11.3-11.3-11.3h-21v3.2h12.9v3.2H94.5v3.2h17.7c2.7,0,4.8,2.2,4.8,4.8v19.4c0,1.4-0.6,2.7-1.6,3.6v10.9
			C121.7-138.9,126.8-144,126.8-150.2z M112.3-138.9v-9.7h-4.1c1.1,3.1,1.1,6.5,0,9.7H112.3z M102.4-145.4h3.3
			c-0.7-4.9-4.6-8.8-9.6-9.6v3.3C99.3-151,101.8-148.5,102.4-145.4z M105.7-142.2h-3.3c-0.7,3.2-3.1,5.6-6.3,6.3v3.3
			C101.1-133.3,104.9-137.2,105.7-142.2z M99.3-143.8c0-2.7-2.2-4.8-4.8-4.8c-2.7,0-4.8,2.2-4.8,4.8c0,2.7,2.2,4.8,4.8,4.8
			C97.2-138.9,99.3-141.1,99.3-143.8z M92.9-132.6v-3.3c-3.2-0.6-5.6-3.1-6.3-6.3h-3.3C84.1-137.2,87.9-133.3,92.9-132.6z
			 M92.9-151.7v-3.3c-4.9,0.7-8.8,4.6-9.5,9.6h3.3C87.3-148.5,89.7-151,92.9-151.7z M91.3-177.7v-9.7h-3.2v9.7H91.3z M88.1-197v-3.2
			H71.9v3.2H88.1z M84.8-177.7v-9.7h-9.7v9.7H84.8z M81.6-190.5v-3.2h-3.2v3.2H81.6z M81.6-203.5v-3.2h-3.2v3.2H81.6z M80.8-148.6
			h-4.1v9.7h4.1C79.7-142.1,79.7-145.5,80.8-148.6z M73.5-138.9v-9.7H67c-6.2,0-11.3,5-11.3,11.3v17.7h9.7v-14.5
			c0-2.7,2.2-4.8,4.8-4.8C70.3-138.9,73.5-138.9,73.5-138.9z M71.9-177.7v-9.7h-3.2v9.7H71.9z M65.5-113.1v-3.2h-9.7v3.2H65.5z
			 M65.5-177.7v-3.2H52.6v-3.2h12.9v-3.2h-21c-6.2,0-11.3,5.1-11.3,11.3v56.5h9.7v-53.2c0-2.7,2.2-4.8,4.8-4.8h17.8V-177.7z
			 M42.9-113.1v-3.2h-9.7v3.2H42.9z"/>
		<path id="XMLID_97_" class="st1" d="M115.5-190.5H84.8v-3.2h4.8c0.9,0,1.6-0.7,1.6-1.6v-6.4c0-0.9-0.7-1.6-1.6-1.6h-4.8v-4.8
			c0-0.9-0.7-1.6-1.6-1.6h-6.4c-0.9,0-1.6,0.7-1.6,1.6v4.8h-4.8c-0.9,0-1.6,0.7-1.6,1.6v6.5c0,0.9,0.7,1.6,1.6,1.6h4.8v3.2H44.5
			c-8,0-14.5,6.5-14.5,14.5v64.5c0,0.9,0.7,1.6,1.6,1.6h12.9c0.9,0,1.6-0.7,1.6-1.6v-61.3c0-0.9,0.7-1.6,1.6-1.6h64.5
			c0.9,0,1.6,0.7,1.6,1.6v19.4c0,0.9-0.7,1.6-1.6,1.6h-5.7c-4.4-6.7-13.4-8.5-20.1-4c-1.6,1.1-3,2.4-4,4H67.1
			c-8,0-14.5,6.5-14.5,14.5v25.8c0,0.9,0.7,1.6,1.6,1.6h12.9c0.9,0,1.6-0.7,1.6-1.6V-134c0-0.9,0.7-1.6,1.6-1.6h12.1
			c4.4,6.7,13.4,8.5,20.1,4c1.6-1.1,2.9-2.4,4-4h8.9c8,0,14.5-6.5,14.5-14.5v-25.8C130-184,123.5-190.5,115.5-190.5z"/>
		<rect id="XMLID_96_" x="78.4" y="-206.7" class="st1" width="3.2" height="3.2"/>
		<rect id="XMLID_95_" x="71.9" y="-200.2" class="st1" width="16.1" height="3.2"/>
		<rect id="XMLID_94_" x="78.4" y="-193.8" class="st1" width="3.2" height="3.2"/>
		<rect id="XMLID_93_" x="33.2" y="-116.4" class="st1" width="9.7" height="3.2"/>
		<path id="XMLID_92_" class="st1" d="M65.5-184.1H52.6v3.2h12.9v3.2H47.7c-2.7,0-4.8,2.2-4.8,4.8v53.2h-9.7v-56.5
			c0-6.2,5.1-11.3,11.3-11.3h21C65.5-187.3,65.5-184.1,65.5-184.1z"/>
		<rect id="XMLID_91_" x="68.7" y="-187.3" class="st1" width="3.2" height="9.7"/>
		<rect id="XMLID_90_" x="75.2" y="-187.3" class="st1" width="9.7" height="9.7"/>
		<rect id="XMLID_89_" x="55.8" y="-116.4" class="st1" width="9.7" height="3.2"/>
		<path id="XMLID_88_" class="st1" d="M73.5-138.9h-3.2c-2.7,0-4.8,2.2-4.8,4.8v14.5h-9.7v-17.7c0-6.2,5.1-11.3,11.3-11.3h6.5
			L73.5-138.9L73.5-138.9z"/>
		<path id="XMLID_87_" class="st1" d="M80.8-138.9h-4.1v-9.7h4.1C79.7-145.5,79.7-142.1,80.8-138.9z"/>
		<path id="XMLID_86_" class="st1" d="M92.9-154.9v3.3c-3.2,0.6-5.6,3.1-6.3,6.3h-3.3C84.1-150.3,87.9-154.2,92.9-154.9z"/>
		<path id="XMLID_71_" class="st1" d="M92.9-132.6c-4.9-0.7-8.8-4.6-9.5-9.6h3.3c0.7,3.2,3.1,5.6,6.3,6.3v3.3H92.9z"/>
		<path id="XMLID_64_" class="st1" d="M89.7-143.8c0-2.7,2.2-4.8,4.8-4.8s4.8,2.2,4.8,4.8c0,2.7-2.2,4.8-4.8,4.8
			S89.7-141.1,89.7-143.8z"/>
		<path id="XMLID_63_" class="st1" d="M96.1-132.6v-3.3c3.2-0.6,5.6-3.1,6.3-6.3h3.3C104.9-137.2,101.1-133.3,96.1-132.6z"/>
		<path id="XMLID_62_" class="st1" d="M102.4-145.4c-0.7-3.2-3.1-5.6-6.3-6.3v-3.3c4.9,0.7,8.8,4.6,9.6,9.6H102.4z"/>
		<path id="XMLID_61_" class="st1" d="M112.3-138.9h-4.1c1.1-3.1,1.1-6.5,0-9.7h4.1V-138.9z"/>
		<rect id="XMLID_60_" x="88.1" y="-187.3" class="st1" width="3.2" height="9.7"/>
		<path id="XMLID_59_" class="st1" d="M126.8-150.2c0,6.2-5.1,11.3-11.3,11.3v-11c1-0.9,1.6-2.2,1.6-3.6v-19.4
			c0-2.7-2.2-4.8-4.8-4.8H94.5v-3.2h12.9v-3.2H94.5v-3.2h21c6.2,0,11.3,5.1,11.3,11.3C126.8-176,126.8-150.2,126.8-150.2z"/>
	</g>
</g>
<g>
	<circle class="st0" cx="315.1" cy="-194.9" r="15"/>
	<polygon class="st2" points="322.3,-195.9 316.1,-195.9 316.1,-202.1 314.1,-202.1 314.1,-195.9 307.9,-195.9 307.9,-193.9 
		314.1,-193.9 314.1,-187.7 316.1,-187.7 316.1,-193.9 322.3,-193.9 	"/>
</g>
<g>
	<g>
		<path d="M329.2-135.8c-0.5,0-0.9,0.4-0.9,0.9v7.8c0,2.1-1.7,3.9-3.9,3.9h-18.9c-2.1,0-3.9-1.7-3.9-3.9v-7.9c0-0.5-0.4-0.9-0.9-0.9
			s-0.9,0.4-0.9,0.9v7.9c0,3.1,2.5,5.6,5.6,5.6h18.9c3.1,0,5.6-2.5,5.6-5.6v-7.8C330.1-135.4,329.7-135.8,329.2-135.8z"/>
		<path d="M314.5-128.4c0.2,0.2,0.4,0.3,0.6,0.3s0.4-0.1,0.6-0.3l5.5-5.5c0.3-0.3,0.3-0.9,0-1.2c-0.3-0.3-0.9-0.3-1.2,0l-4,4v-17.4
			c0-0.5-0.4-0.9-0.9-0.9s-0.9,0.4-0.9,0.9v17.4l-4-4c-0.3-0.3-0.9-0.3-1.2,0s-0.3,0.9,0,1.2L314.5-128.4z"/>
	</g>
</g>
</svg>
