<?xml version="1.0" encoding="utf-8"?>
<!-- Generator: Adobe Illustrator 19.0.0, SVG Export Plug-In . SVG Version: 6.00 Build 0)  -->
<svg version="1.1" id="Слой_1" xmlns="http://www.w3.org/2000/svg" xmlns:xlink="http://www.w3.org/1999/xlink" x="0px" y="0px"
	 width="1000px" height="1000px" viewBox="0 0 1000 1000" style="enable-background:new 0 0 1000 1000;" xml:space="preserve">
<style type="text/css">
	.st0{fill:#008055;}
	.st1{fill:none;stroke:#FFFFFF;stroke-miterlimit:10;}
</style>
<g id="XMLID_3_">
	<g id="XMLID_1_">
		<path id="XMLID_384_" d="M245.35,45v63.33c0,1-0.67,1.67-1.67,1.67h-50c-1,0-1.66-0.67-1.66-1.67V45c0-1,0.66-1.67,1.66-1.67h50
			C244.68,43.33,245.35,44,245.35,45z M242.02,106.67V60h-46.67c0,16.17,0,46.67,0,46.67H242.02z M242.02,56.67v-10h-46.67
			c0,0,0,3,0,3.33h20v3.33h-20c0,0.67,0,2.34,0,3.34H242.02z"/>
		<rect id="XMLID_383_" x="230.35" y="98.33" width="6.67" height="3.34"/>
		<rect id="XMLID_382_" x="230.35" y="91.67" width="6.67" height="3.33"/>
		<rect id="XMLID_381_" x="230.35" y="85" width="6.67" height="3.33"/>
		<rect id="XMLID_380_" x="230.35" y="78.33" width="6.67" height="3.34"/>
		<rect id="XMLID_379_" x="230.35" y="71.67" width="6.67" height="3.33"/>
		<rect id="XMLID_378_" x="228.68" y="63.33" width="5" height="3.34"/>
		<path id="XMLID_375_" d="M228.68,11.67v25h-3.33V13.33h-56.67v18.34c0,1-0.66,1.66-1.66,1.66h-18.34c0,1.84,0,16.67,0,16.67h-3.33
			V31.67c0-0.17,0.17-0.34,0.17-0.5V31c0.16-0.17,0.16-0.33,0.33-0.5l20-20c0.17-0.17,0.33-0.17,0.5-0.33h0.17
			c0.16-0.17,0.33-0.17,0.5-0.17h60C228.02,10,228.68,10.67,228.68,11.67z M165.35,30V15.67l-7.17,7.16L151.02,30H165.35z"/>
		<rect id="XMLID_374_" x="220.35" y="98.33" width="6.67" height="3.34"/>
		<rect id="XMLID_373_" x="220.35" y="91.67" width="6.67" height="3.33"/>
		<rect id="XMLID_372_" x="220.35" y="85" width="6.67" height="3.33"/>
		<rect id="XMLID_371_" x="220.35" y="78.33" width="6.67" height="3.34"/>
		<rect id="XMLID_370_" x="220.35" y="71.67" width="6.67" height="3.33"/>
		<rect id="XMLID_369_" x="220.35" y="63.33" width="5" height="3.34"/>
		<rect id="XMLID_368_" x="218.68" y="50" width="5" height="3.33"/>
		<rect id="XMLID_367_" x="190.35" y="26.67" width="30" height="3.33"/>
		<rect id="XMLID_366_" x="208.68" y="18.33" width="11.67" height="3.34"/>
		<rect id="XMLID_365_" x="210.35" y="98.33" width="6.67" height="3.34"/>
		<rect id="XMLID_364_" x="210.35" y="91.67" width="6.67" height="3.33"/>
		<rect id="XMLID_363_" x="210.35" y="85" width="6.67" height="3.33"/>
		<rect id="XMLID_362_" x="210.35" y="78.33" width="6.67" height="3.34"/>
		<rect id="XMLID_361_" x="210.35" y="71.67" width="6.67" height="3.33"/>
		<rect id="XMLID_360_" x="212.02" y="63.33" width="5" height="3.34"/>
		<rect id="XMLID_359_" x="203.68" y="63.33" width="5" height="3.34"/>
		<rect id="XMLID_358_" x="200.35" y="98.33" width="6.67" height="3.34"/>
		<rect id="XMLID_357_" x="200.35" y="91.67" width="6.67" height="3.33"/>
		<rect id="XMLID_356_" x="200.35" y="85" width="6.67" height="3.33"/>
		<rect id="XMLID_355_" x="200.35" y="78.33" width="6.67" height="3.34"/>
		<rect id="XMLID_354_" x="200.35" y="71.67" width="6.67" height="3.33"/>
		<path id="XMLID_343_" d="M188.68,100v8.33c0,1-0.66,1.67-1.66,1.67h-20h-20c-1,0-1.67-0.67-1.67-1.67V100v-8.33v-8.34V75v-8.33
			v-8.34c0-1,0.67-1.66,1.67-1.66h20c1,0,1.66,0.66,1.66,1.66v8.34V75v6.67h18.34c1,0,1.66,0.66,1.66,1.66v8.34V100z M185.35,106.67
			v-5h-16.67v5H185.35z M185.35,98.33v-5h-16.67v5H185.35z M185.35,90v-5h-16.67v5H185.35z M165.35,106.67v-5h-16.67v5H165.35z
			 M165.35,98.33v-5h-16.67v5H165.35z M165.35,90v-5h-16.67v5H165.35z M165.35,81.67v-5h-16.67v5H165.35z M165.35,73.33v-5h-16.67v5
			H165.35z M165.35,65v-5h-16.67v5H165.35z"/>
		<rect id="XMLID_342_" x="168.68" y="93.33" class="st0" width="16.67" height="5"/>
		<rect id="XMLID_341_" x="148.68" y="85" class="st0" width="16.67" height="5"/>
		<rect id="XMLID_340_" x="148.68" y="76.67" class="st0" width="16.67" height="5"/>
		<polygon id="XMLID_339_" class="st0" points="165.35,15.67 165.35,30 151.02,30 158.18,22.83 		"/>
		<path id="XMLID_337_" class="st1" d="M243.68,43.33h-50c-1,0-1.66,0.67-1.66,1.67v63.33c0,1,0.66,1.67,1.66,1.67h50
			c1,0,1.67-0.67,1.67-1.67V45C245.35,44,244.68,43.33,243.68,43.33z"/>
		<path id="XMLID_336_" class="st1" d="M242.02,106.67h-46.67c0,0,0-30.5,0-46.67h46.67V106.67z"/>
		<path id="XMLID_335_" class="st1" d="M242.02,56.67h-46.67c0-1,0-2.67,0-3.34h20V50h-20c0-0.33,0-3.33,0-3.33h46.67V56.67z"/>
		<rect id="XMLID_334_" x="203.68" y="63.33" class="st1" width="5" height="3.34"/>
		<rect id="XMLID_333_" x="212.02" y="63.33" class="st1" width="5" height="3.34"/>
		<rect id="XMLID_332_" x="220.35" y="63.33" class="st1" width="5" height="3.34"/>
		<rect id="XMLID_331_" x="228.68" y="63.33" class="st1" width="5" height="3.34"/>
		<rect id="XMLID_330_" x="200.35" y="71.67" class="st1" width="6.67" height="3.33"/>
		<rect id="XMLID_329_" x="210.35" y="71.67" class="st1" width="6.67" height="3.33"/>
		<rect id="XMLID_328_" x="220.35" y="71.67" class="st1" width="6.67" height="3.33"/>
		<rect id="XMLID_327_" x="230.35" y="71.67" class="st1" width="6.67" height="3.33"/>
		<rect id="XMLID_326_" x="200.35" y="78.33" class="st1" width="6.67" height="3.34"/>
		<rect id="XMLID_325_" x="210.35" y="78.33" class="st1" width="6.67" height="3.34"/>
		<rect id="XMLID_324_" x="220.35" y="78.33" class="st1" width="6.67" height="3.34"/>
		<rect id="XMLID_323_" x="230.35" y="78.33" class="st1" width="6.67" height="3.34"/>
		<rect id="XMLID_322_" x="200.35" y="85" class="st1" width="6.67" height="3.33"/>
		<rect id="XMLID_321_" x="210.35" y="85" class="st1" width="6.67" height="3.33"/>
		<rect id="XMLID_320_" x="220.35" y="85" class="st1" width="6.67" height="3.33"/>
		<rect id="XMLID_319_" x="230.35" y="85" class="st1" width="6.67" height="3.33"/>
		<rect id="XMLID_318_" x="200.35" y="91.67" class="st1" width="6.67" height="3.33"/>
		<rect id="XMLID_317_" x="210.35" y="91.67" class="st1" width="6.67" height="3.33"/>
		<rect id="XMLID_316_" x="220.35" y="91.67" class="st1" width="6.67" height="3.33"/>
		<rect id="XMLID_315_" x="230.35" y="91.67" class="st1" width="6.67" height="3.33"/>
		<rect id="XMLID_314_" x="200.35" y="98.33" class="st1" width="6.67" height="3.34"/>
		<rect id="XMLID_313_" x="210.35" y="98.33" class="st1" width="6.67" height="3.34"/>
		<rect id="XMLID_308_" x="220.35" y="98.33" class="st1" width="6.67" height="3.34"/>
		<rect id="XMLID_307_" x="230.35" y="98.33" class="st1" width="6.67" height="3.34"/>
		<path id="XMLID_306_" class="st1" d="M148.68,33.33h18.34c1,0,1.66-0.66,1.66-1.66V13.33h56.67v23.34h3.33v-25
			c0-1-0.66-1.67-1.66-1.67h-60c-0.17,0-0.34,0-0.5,0.17h-0.17c-0.17,0.16-0.33,0.16-0.5,0.33l-20,20c-0.17,0.17-0.17,0.33-0.33,0.5
			v0.17c0,0.16-0.17,0.33-0.17,0.5V50h3.33C148.68,50,148.68,35.17,148.68,33.33z"/>
		<polygon id="XMLID_305_" class="st1" points="158.18,22.83 165.35,15.67 165.35,30 151.02,30 		"/>
		<path id="XMLID_304_" class="st1" d="M187.02,81.67h-18.34V75v-8.33v-8.34c0-1-0.66-1.66-1.66-1.66h-20c-1,0-1.67,0.66-1.67,1.66
			v8.34V75v8.33v8.34V100v8.33c0,1,0.67,1.67,1.67,1.67h20h20c1,0,1.66-0.67,1.66-1.67V100v-8.33v-8.34
			C188.68,82.33,188.02,81.67,187.02,81.67z"/>
		<rect id="XMLID_303_" x="148.68" y="101.67" class="st1" width="16.67" height="5"/>
		<rect id="XMLID_302_" x="148.68" y="93.33" class="st1" width="16.67" height="5"/>
		<rect id="XMLID_301_" x="148.68" y="85" class="st1" width="16.67" height="5"/>
		<rect id="XMLID_300_" x="148.68" y="76.67" class="st1" width="16.67" height="5"/>
		<rect id="XMLID_299_" x="148.68" y="68.33" class="st1" width="16.67" height="5"/>
		<rect id="XMLID_298_" x="148.68" y="60" class="st1" width="16.67" height="5"/>
		<rect id="XMLID_297_" x="168.68" y="101.67" class="st1" width="16.67" height="5"/>
		<rect id="XMLID_296_" x="168.68" y="93.33" class="st1" width="16.67" height="5"/>
		<rect id="XMLID_295_" x="168.68" y="85" class="st1" width="16.67" height="5"/>
		<rect id="XMLID_294_" x="208.68" y="18.33" class="st1" width="11.67" height="3.34"/>
		<rect id="XMLID_293_" x="190.35" y="26.67" class="st1" width="30" height="3.33"/>
		<rect id="XMLID_292_" x="218.68" y="50" class="st1" width="5" height="3.33"/>
	</g>
	<g id="XMLID_2_">
		<rect id="XMLID_227_" x="48.7" y="32.58" class="st0" width="3.23" height="9.67"/>
		<rect id="XMLID_226_" x="68.06" y="32.58" class="st0" width="3.23" height="9.67"/>
		<rect id="XMLID_225_" x="58.38" y="26.13" class="st0" width="3.23" height="3.22"/>
		<rect id="XMLID_224_" x="58.38" y="13.22" class="st0" width="3.23" height="3.23"/>
		<rect id="XMLID_223_" x="51.93" y="19.67" class="st0" width="16.13" height="3.23"/>
		<path id="XMLID_222_" class="st0" d="M82.41,77.74h3.26c-0.72,4.94-4.6,8.83-9.55,9.55v-3.26C79.29,83.38,81.76,80.9,82.41,77.74z
			"/>
		<path id="XMLID_221_" class="st0" d="M85.67,74.51h-3.26c-0.65-3.16-3.12-5.64-6.29-6.29v-3.26
			C81.07,65.68,84.95,69.57,85.67,74.51z"/>
		<path id="XMLID_220_" class="st0" d="M72.9,64.96v3.26c-3.17,0.65-5.64,3.13-6.29,6.29h-3.26C64.07,69.57,67.95,65.68,72.9,64.96z
			"/>
		<path id="XMLID_219_" class="st0" d="M72.9,84.03v3.26c-4.95-0.72-8.83-4.61-9.55-9.55h3.26C67.26,80.9,69.73,83.38,72.9,84.03z"
			/>
		<rect id="XMLID_218_" x="35.8" y="103.54" class="st0" width="9.68" height="3.23"/>
		<rect id="XMLID_217_" x="13.22" y="103.54" class="st0" width="9.68" height="3.23"/>
		<path id="XMLID_99_" d="M110,43.87v25.8c-0.01,8.02-6.51,14.51-14.52,14.52h-8.91c-1.06,1.59-2.42,2.95-4.01,4.01
			c-6.66,4.45-15.67,2.65-20.11-4.01H50.32c-0.89,0-1.62,0.72-1.62,1.61v22.58c0,0.89-0.72,1.62-1.61,1.62h-12.9
			c-0.89,0-1.61-0.73-1.61-1.62v-25.8c0-8.02,6.5-14.51,14.51-14.52h15.36c1.06-1.59,2.42-2.95,4.01-4.01
			c6.66-4.45,15.67-2.65,20.11,4.01h5.68c0.89,0,1.62-0.72,1.62-1.61V47.09c0-0.89-0.73-1.61-1.62-1.61H27.74
			c-0.89,0-1.62,0.72-1.62,1.61v61.29c0,0.89-0.72,1.62-1.61,1.62h-12.9c-0.89,0-1.61-0.73-1.61-1.62V43.87
			c0-8.02,6.5-14.51,14.51-14.52h30.65v-3.22h-4.84c-0.89,0-1.62-0.73-1.62-1.62v-6.45c0-0.89,0.73-1.61,1.62-1.61h4.84v-4.84
			c0-0.89,0.72-1.61,1.61-1.61h6.45c0.89,0,1.61,0.72,1.61,1.61v4.84h4.84c0.89,0,1.62,0.72,1.62,1.61v6.45
			c0,0.89-0.73,1.62-1.62,1.62h-4.84v3.22h30.65C103.49,29.36,109.99,35.85,110,43.87z M106.77,69.67v-25.8
			c-0.01-6.24-5.06-11.29-11.29-11.29H74.51v3.22h12.9v3.23h-12.9v3.22h17.74c2.68,0,4.84,2.17,4.84,4.84v19.36
			c0,1.37-0.59,2.67-1.61,3.58v10.93C101.71,80.96,106.76,75.91,106.77,69.67z M92.25,80.96v-9.67h-4.07c1.13,3.12,1.13,6.55,0,9.67
			H92.25z M82.41,74.51h3.26c-0.72-4.94-4.6-8.83-9.55-9.55v3.26C79.29,68.87,81.76,71.35,82.41,74.51z M85.67,77.74h-3.26
			c-0.65,3.16-3.12,5.64-6.29,6.29v3.26C81.07,86.57,84.95,82.68,85.67,77.74z M79.35,76.13c0-2.68-2.17-4.84-4.84-4.84
			c-2.67,0-4.84,2.16-4.84,4.84c0,2.67,2.17,4.83,4.84,4.83C77.18,80.96,79.35,78.8,79.35,76.13z M72.9,87.29v-3.26
			c-3.17-0.65-5.64-3.13-6.29-6.29h-3.26C64.07,82.68,67.95,86.57,72.9,87.29z M72.9,68.22v-3.26c-4.95,0.72-8.83,4.61-9.55,9.55
			h3.26C67.26,71.35,69.73,68.87,72.9,68.22z M71.29,42.25v-9.67h-3.23v9.67H71.29z M68.06,22.9v-3.23H51.93v3.23H68.06z
			 M64.83,42.25v-9.67h-9.67v9.67H64.83z M61.61,29.35v-3.22h-3.23v3.22H61.61z M61.61,16.45v-3.23h-3.23v3.23H61.61z M60.84,71.29
			h-4.07v9.67h4.07C59.71,77.84,59.71,74.41,60.84,71.29z M53.54,80.96v-9.67h-6.45c-6.23,0-11.28,5.05-11.29,11.29v17.74h9.68V85.8
			c0-2.67,2.17-4.84,4.84-4.84H53.54z M51.93,42.25v-9.67H48.7v9.67H51.93z M45.48,106.77v-3.23H35.8v3.23H45.48z M45.48,42.25
			v-3.22h-12.9V35.8h12.9v-3.22H24.51c-6.23,0-11.28,5.05-11.29,11.29v56.45h9.68V47.09c0-2.67,2.16-4.84,4.84-4.84H45.48z
			 M22.9,106.77v-3.23h-9.68v3.23H22.9z"/>
		<path id="XMLID_97_" class="st1" d="M95.48,29.35H64.83v-3.22h4.84c0.89,0,1.62-0.73,1.62-1.62v-6.45c0-0.89-0.73-1.61-1.62-1.61
			h-4.84v-4.84c0-0.89-0.72-1.61-1.61-1.61h-6.45c-0.89,0-1.61,0.72-1.61,1.61v4.84h-4.84c-0.89,0-1.62,0.72-1.62,1.61v6.45
			c0,0.89,0.73,1.62,1.62,1.62h4.84v3.22H24.51C16.5,29.36,10,35.85,10,43.87v64.51c0,0.89,0.72,1.62,1.61,1.62h12.9
			c0.89,0,1.61-0.73,1.61-1.62V47.09c0-0.89,0.73-1.61,1.62-1.61h64.51c0.89,0,1.62,0.72,1.62,1.61v19.36
			c0,0.89-0.73,1.61-1.62,1.61h-5.68c-4.44-6.66-13.45-8.46-20.11-4.01c-1.59,1.06-2.95,2.42-4.01,4.01H47.09
			c-8.01,0.01-14.51,6.5-14.51,14.52v25.8c0,0.89,0.72,1.62,1.61,1.62h12.9c0.89,0,1.61-0.73,1.61-1.62V85.8
			c0-0.89,0.73-1.61,1.62-1.61h12.13c4.44,6.66,13.45,8.46,20.11,4.01c1.59-1.06,2.95-2.42,4.01-4.01h8.91
			c8.01-0.01,14.51-6.5,14.52-14.52v-25.8C109.99,35.85,103.49,29.36,95.48,29.35z"/>
		<rect id="XMLID_96_" x="58.38" y="13.22" class="st1" width="3.23" height="3.23"/>
		<rect id="XMLID_95_" x="51.93" y="19.67" class="st1" width="16.13" height="3.23"/>
		<rect id="XMLID_94_" x="58.38" y="26.13" class="st1" width="3.23" height="3.22"/>
		<rect id="XMLID_93_" x="13.22" y="103.54" class="st1" width="9.68" height="3.23"/>
		<path id="XMLID_92_" class="st1" d="M45.48,35.8h-12.9v3.23h12.9v3.22H27.74c-2.68,0-4.84,2.17-4.84,4.84v53.23h-9.68V43.87
			c0.01-6.24,5.06-11.29,11.29-11.29h20.97V35.8z"/>
		<rect id="XMLID_91_" x="48.7" y="32.58" class="st1" width="3.23" height="9.67"/>
		<rect id="XMLID_90_" x="55.16" y="32.58" class="st1" width="9.67" height="9.67"/>
		<rect id="XMLID_89_" x="35.8" y="103.54" class="st1" width="9.68" height="3.23"/>
		<path id="XMLID_88_" class="st1" d="M53.54,80.96h-3.22c-2.67,0-4.84,2.17-4.84,4.84v14.52H35.8V82.58
			c0.01-6.24,5.06-11.29,11.29-11.29h6.45V80.96z"/>
		<path id="XMLID_87_" class="st1" d="M60.84,80.96h-4.07v-9.67h4.07C59.71,74.41,59.71,77.84,60.84,80.96z"/>
		<path id="XMLID_86_" class="st1" d="M72.9,64.96v3.26c-3.17,0.65-5.64,3.13-6.29,6.29h-3.26C64.07,69.57,67.95,65.68,72.9,64.96z"
			/>
		<path id="XMLID_71_" class="st1" d="M72.9,87.29c-4.95-0.72-8.83-4.61-9.55-9.55h3.26c0.65,3.16,3.12,5.64,6.29,6.29V87.29z"/>
		<path id="XMLID_64_" class="st1" d="M69.67,76.13c0-2.68,2.17-4.84,4.84-4.84c2.67,0,4.84,2.16,4.84,4.84
			c0,2.67-2.17,4.83-4.84,4.83C71.84,80.96,69.67,78.8,69.67,76.13z"/>
		<path id="XMLID_63_" class="st1" d="M76.12,87.29v-3.26c3.17-0.65,5.64-3.13,6.29-6.29h3.26C84.95,82.68,81.07,86.57,76.12,87.29z
			"/>
		<path id="XMLID_62_" class="st1" d="M82.41,74.51c-0.65-3.16-3.12-5.64-6.29-6.29v-3.26c4.95,0.72,8.83,4.61,9.55,9.55H82.41z"/>
		<path id="XMLID_61_" class="st1" d="M92.25,80.96h-4.07c1.13-3.12,1.13-6.55,0-9.67h4.07V80.96z"/>
		<rect id="XMLID_60_" x="68.06" y="32.58" class="st1" width="3.23" height="9.67"/>
		<path id="XMLID_59_" class="st1" d="M106.77,69.67c-0.01,6.24-5.06,11.29-11.29,11.29V70.03c1.02-0.91,1.61-2.21,1.61-3.58V47.09
			c0-2.67-2.16-4.84-4.84-4.84H74.51v-3.22h12.9V35.8h-12.9v-3.22h20.97c6.23,0,11.28,5.05,11.29,11.29V69.67z"/>
	</g>
</g>
<g id="XMLID_31_">
	<g id="XMLID_47_">
		<g id="XMLID_48_">
			<path id="XMLID_50_" d="M303.554,30.49c4.681-4.681,4.681-12.299,0-16.979s-12.299-4.681-16.979,0s-4.681,12.299,0,16.979
				S298.873,35.17,303.554,30.49z M287.421,14.357c4.215-4.215,11.07-4.215,15.285,0s4.215,11.07,0,15.285s-11.07,4.215-15.285,0
				S283.211,18.573,287.421,14.357z"/>
			<path id="XMLID_49_" d="M295.064,26.494c0.166,0,0.313-0.069,0.426-0.176c0.108-0.108,0.176-0.259,0.176-0.426v-3.295h3.295
				c0.166,0,0.313-0.069,0.426-0.176c0.108-0.108,0.176-0.259,0.176-0.426c0-0.333-0.269-0.602-0.597-0.597h-3.295v-3.295
				c0-0.333-0.269-0.602-0.597-0.597c-0.333,0-0.602,0.269-0.597,0.597v3.295h-3.295c-0.333,0-0.602,0.269-0.597,0.597
				c0,0.333,0.269,0.602,0.597,0.597h3.295v3.295C294.462,26.225,294.731,26.494,295.064,26.494z"/>
		</g>
	</g>
	<g id="XMLID_46_">
	</g>
	<g id="XMLID_45_">
	</g>
	<g id="XMLID_44_">
	</g>
	<g id="XMLID_43_">
	</g>
	<g id="XMLID_42_">
	</g>
	<g id="XMLID_41_">
	</g>
	<g id="XMLID_40_">
	</g>
	<g id="XMLID_39_">
	</g>
	<g id="XMLID_38_">
	</g>
	<g id="XMLID_37_">
	</g>
	<g id="XMLID_36_">
	</g>
	<g id="XMLID_35_">
	</g>
	<g id="XMLID_34_">
	</g>
	<g id="XMLID_33_">
	</g>
	<g id="XMLID_32_">
	</g>
</g>
</svg>
